<?xml version="1.0" encoding="UTF-8"?>
<svg id="Layer_1" data-name="Layer 1" xmlns="http://www.w3.org/2000/svg" viewBox="0 0 294.46 237.94">
  <defs>
    <style>
      .cls-1 {
        fill: #801c1f;
      }
    </style>
  </defs>
  <g>
    <path class="cls-1" d="M114.46,114.63c-21.45-11.36-38.68-37.01-54.84-60.46-2.28-3.31-21.06-25.01-46.84-27.33-4.48-.4-8.79,2.35-10.05,6.66-10.5,35.74,10.6,65.91,42.45,92.43,28.12,23.41,81.14,31.57,99.1,11.78,4.47-4.93,4.39-9.87-.94-11.11-2.22-.52-23.05-8.88-28.88-11.96Z"/>
    <path class="cls-1" d="M49.26,34.23c21.45,11.36,38.68,37.01,54.84,60.46,2.28,3.31,21.06,25.01,46.84,27.33,4.48.4,8.79-2.35,10.05-6.66,10.5-35.74-10.6-65.91-42.45-92.43C90.42-.48,37.4-8.63,19.44,11.15c-4.47,4.93-4.39,9.87.94,11.11,2.22.52,23.05,8.88,28.88,11.96Z"/>
  </g>
  <g>
    <path class="cls-1" d="M139.3,213.65c-12.35,1.04-26.84-5.21-40.25-10.82-1.89-.79-15.95-4.93-27.66,1.2-2.03,1.06-3.12,3.43-2.48,5.64,5.36,18.25,22.75,25.38,43.76,27.97,18.54,2.29,43.57-8.85,45.81-22.31.56-3.35-.84-5.45-3.47-4.51-1.09.39-12.35,2.56-15.71,2.84Z"/>
    <path class="cls-1" d="M89.09,197.13c12.35-1.04,26.84,5.21,40.25,10.82,1.89.79,15.95,4.93,27.66-1.2,2.03-1.06,3.12-3.43,2.48-5.64-5.36-18.25-22.75-25.38-43.76-27.97-18.54-2.29-43.57,8.85-45.81,22.31-.56,3.35.84,5.45,3.47,4.51,1.09-.39,12.35-2.56,15.71-2.84Z"/>
  </g>
  <g>
    <path class="cls-1" d="M269.92,111.91c-11.27,13.13-31.79,21.08-50.63,28.64-2.66,1.07-20.69,10.71-26.35,28.27-.98,3.05.25,6.47,3.05,8.03,23.2,12.91,47.48,2.97,70.91-15.01,20.68-15.87,34.67-51.45,23.73-67.04-2.72-3.88-6.17-4.6-7.87-1.09-.71,1.46-9.79,14.63-12.85,18.2Z"/>
    <path class="cls-1" d="M203.8,144.63c11.27-13.13,31.79-21.08,50.63-28.64,2.66-1.07,20.69-10.71,26.35-28.27.98-3.05-.25-6.47-3.05-8.03-23.2-12.91-47.48-2.97-70.91,15.01-20.68,15.87-34.67,51.45-23.73,67.04,2.72,3.88,6.17,4.6,7.87,1.09.71-1.46,9.79-14.63,12.85-18.2Z"/>
  </g>
</svg>